<svg xmlns="http://www.w3.org/2000/svg" aria-hidden="true" style="position:absolute;width:0;height:0;overflow:hidden">
  <defs>
    <symbol id="icon-facebook" viewBox="0 0 32 32">
      <path d="M21 5h3V0h-4c-4 0-7 3-7 8v4H8v6h5v14h6V18h4l1-6h-5V8c0-2 0-3 2-3z"/>
    </symbol>
    <symbol id="icon-instagram" viewBox="0 0 32 32">
      <path d="m32 9-1-3c0-2-1-3-2-3l-2-2-4-1A110 110 0 0 0 6 1L3 3C2 3 1 4 1 6L0 9a110 110 0 0 0 1 17c0 2 1 3 2 3l3 2 3 1a117 117 0 0 0 18-1c2-1 3-2 4-5l1-3V9zm-3 13v3c-1 2-2 3-4 3l-2 1a113 113 0 0 1-16-1l-2-1-1-2-1-3A113 113 0 0 1 4 7l1-2 2-1 3-1a113 113 0 0 1 16 1l1 1 2 2v15z"/>
      <path d="M16 8a8 8 0 1 0 0 16 8 8 0 0 0 0-16zm0 13a5 5 0 1 1 0-10 5 5 0 0 1 0 10z"/>
      <path d="M27 7a2 2 0 1 1-4 0 2 2 0 0 1 4 0z"/>
    </symbol>
    <symbol id="icon-linkedin" viewBox="0 0 32 32">
      <path d="M32 32V20c0-5-1-10-8-10-3 0-5 2-6 4v-3h-7v21h7V21c0-2 0-5 4-5 3 0 3 3 3 6v10h7z"/>
      <path d="M1 11h6v21H1V11z"/>
      <path d="M4 0C2 0 0 2 0 4s2 4 4 4 4-2 4-4-2-4-4-4z"/>
    </symbol>
    <symbol id="icon-twitter" viewBox="0 0 32 32">
      <path d="m32 6-4 1c2-1 3-2 3-4l-4 2a7 7 0 0 0-11 6C10 11 5 8 2 4a7 7 0 0 0 2 9l-3-1c0 3 3 6 6 7a7 7 0 0 1-3 0c0 2 3 4 6 4a13 13 0 0 1-10 3A19 19 0 0 0 29 9l3-3z"/>
    </symbol>
    <symbol id="icon-antenna" viewBox="0 0 32 32">
      <path fill="#2e2f42" d="m31 22-9-8 1-5h1a2 2 0 1 0-2-1h-5L9 0H8L7 2l1 1a15 15 0 0 0 2 18v7H4c-2 0-3 1-3 2v1l1 1h24l1-1v-1l-3-2h-6v-3a15 15 0 0 0 10-1h1v1-1l2-1v-1zM23 6a1 1 0 1 1 1 2 1 1 0 0 1-1-2zm-1 4-1 3-1-1 2-2zm-1-1-2 2-1-2h3zm3 20 2 1v1H2v-1l2-1h20zm-7-2v1h-6v-1h6zm-6-1v-4c0-2 1-3 3-3s3 1 3 3v4h-6zm7-2v-2c0-2-2-4-4-4l-3 2C7 16 6 9 8 4l19 19c-3 1-6 2-9 1zm11-1L8 2l1-1 8 8 13 13-1 1z" style="fill:var(--color1, #2e2f42)"/>
      <path fill="#4d5ae5" d="M14 20a2 2 0 1 0 0 3 2 2 0 1 0 0-3zm0 2a1 1 0 0 1 0-1 1 1 0 0 1 0 1z" style="fill:var(--color2, #4d5ae5)"/>
    </symbol>
    <symbol id="icon-astronaut" viewBox="0 0 32 32">
      <path fill="#4d5ae5" d="M32 5V4h-2l-1-2h-1l-1 2h-2a1 1 0 0 0 0 1l1 1v3h1l1-1 2 1a1 1 0 0 0 1-1l-1-2 2-1zm-2 1h-1l1 1h-1a1 1 0 0 0-1 0h-1V6l-1-1h2V4l1 1h1v1z" style="fill:var(--color2, #4d5ae5)"/>
      <path fill="#4d5ae5" d="M26 21h-1v1h1v-1z" style="fill:var(--color2, #4d5ae5)"/>
      <path fill="#4d5ae5" d="M26 23h-1v1h1v-1z" style="fill:var(--color2, #4d5ae5)"/>
      <path fill="#4d5ae5" d="M27 22h-1v1h1v-1z" style="fill:var(--color2, #4d5ae5)"/>
      <path fill="#4d5ae5" d="M25 22h-1v1h1v-1z" style="fill:var(--color2, #4d5ae5)"/>
      <path fill="#4d5ae5" d="M22 26h-1v1h1v-1z" style="fill:var(--color2, #4d5ae5)"/>
      <path fill="#4d5ae5" d="M22 29h-1v1h1v-1z" style="fill:var(--color2, #4d5ae5)"/>
      <path fill="#4d5ae5" d="M23 27h-1v2h1v-2z" style="fill:var(--color2, #4d5ae5)"/>
      <path fill="#4d5ae5" d="M21 27h-1v2h1v-2z" style="fill:var(--color2, #4d5ae5)"/>
      <path fill="#4d5ae5" d="M16 24h-1v1h1v-1z" style="fill:var(--color2, #4d5ae5)"/>
      <path fill="#4d5ae5" d="M16 26h-1v1h1v-1z" style="fill:var(--color2, #4d5ae5)"/>
      <path fill="#4d5ae5" d="M17 25h-1v1h1v-1z" style="fill:var(--color2, #4d5ae5)"/>
      <path fill="#4d5ae5" d="M15 25h-1v1h1v-1z" style="fill:var(--color2, #4d5ae5)"/>
      <path fill="#4d5ae5" d="M6 6H5v1h1V6z" style="fill:var(--color2, #4d5ae5)"/>
      <path fill="#4d5ae5" d="M6 8H5v1h1V8z" style="fill:var(--color2, #4d5ae5)"/>
      <path fill="#4d5ae5" d="M7 7H6v1h1V7z" style="fill:var(--color2, #4d5ae5)"/>
      <path fill="#4d5ae5" d="M5 7H4v1h1V7z" style="fill:var(--color2, #4d5ae5)"/>
      <path fill="#2e2f42" d="m25 14-1-1-2 1-1 1-2 1h-1a7 7 0 0 0-3-14 7 7 0 0 0-6 11H6l-3 2-2 1a2 2 0 0 0 1 3h1l1-1 2-1h2l-6 5-1 2a2 2 0 0 0 0 2 2 2 0 0 0 2 0l2-1 1-2 1 1-2 2-1 1a2 2 0 0 0 0 3 2 2 0 0 0 2 0l4-4 1-1 5-6 4 1 3-2 2-1v-3zM2 18a1 1 0 0 1-1-1l2-1v1l-1 1zm4-2-2 1v-2l2-1v2zm15-7-1 3-4-2-1-1 2-5c2 0 4 3 4 5zM9 9a6 6 0 0 1 7-5l-2 4a2 2 0 1 0 0 4l2-1 4 2A6 6 0 0 1 9 9zm6 1a1 1 0 0 1-2 0 1 1 0 0 1 2 0zM2 25a1 1 0 0 1 0-1l1-1v1l-1 1zm4 4H5a1 1 0 0 1 0-1l1-1 1 1-1 1zm3-4-2 2v-1l1-1v-1l-1-2H6l-2 1H3l3-3 4 4-1 1zm7-7v1l-5 5-5-5 3-2a1 1 0 0 0 0-1H7v-2h3a7 7 0 0 0 6 2l3 1v2l-3-1zm4 1v-2l1-1 1 1-2 2zm4-3-1 1-1-2h1s0-1 0 0a1 1 0 0 1 1 1z" style="fill:var(--color1, #2e2f42)"/>
      <path fill="#2e2f42" d="m14 19-3-3-2 3 2 2 3-2zm-3 1-1-1 1-1 1 1-1 1z" style="fill:var(--color1, #2e2f42)"/>
      <path fill="#2e2f42" d="M17 5v1l2 2h1c0-2-2-3-3-3z" style="fill:var(--color1, #2e2f42)"/>
      <path fill="#2e2f42" d="M20 9h-1v1h1V9z" style="fill:var(--color1, #2e2f42)"/>
    </symbol>
    <symbol id="icon-clock" viewBox="0 0 32 32">
      <path fill="#2e2f42" d="M31 15a15 15 0 1 0-19 15v-1l4-12a2 2 0 1 0-1-3l-5-6a1 1 0 0 0-1 1l5 5 1 3-4 11a14 14 0 1 1 11 0l-1-2a1 1 0 0 0-1 0l-4 3a1 1 0 0 0 1 1l5 2a1 1 0 0 0 0-1v-2c6-2 9-8 9-14zm-15 0a1 1 0 1 1 0 1 1 1 0 0 1 0-1zm2 15 2-2 1 2h-3z" style="fill:var(--color1, #2e2f42)"/>
      <path fill="#4d5ae5" d="M15 3v1a1 1 0 1 0 2 0V3a1 1 0 0 0-2 0z" style="fill:var(--color2, #4d5ae5)"/>
      <path fill="#4d5ae5" d="M4 15a1 1 0 0 0 0 1h1a1 1 0 1 0 0-1H4z" style="fill:var(--color2, #4d5ae5)"/>
      <path fill="#4d5ae5" d="M28 16a1 1 0 1 0 0-1h-1a1 1 0 0 0 0 1h1z" style="fill:var(--color2, #4d5ae5)"/>
    </symbol>
    <symbol id="icon-diagram" viewBox="0 0 32 32">
      <path fill="#4d5ae5" d="M15 15h1v5h-1v-5z" style="fill:var(--color2, #4d5ae5)"/>
      <path fill="#4d5ae5" d="M19 17h1v3h-1v-3z" style="fill:var(--color2, #4d5ae5)"/>
      <path fill="#4d5ae5" d="M11 19h1v1h-1v-1z" style="fill:var(--color2, #4d5ae5)"/>
      <path fill="#4d5ae5" d="M7 18h2v2H7v-2z" style="fill:var(--color2, #4d5ae5)"/>
      <path fill="#2e2f42" d="M2 28h25l2-1v-2l-2-2V10l3-3a2 2 0 1 0-1-1l-2 2V7l-2-2H4L2 7v16l-2 2v2l2 1zM30 5a1 1 0 1 1 0 1 1 1 0 0 1 0-1zM3 7l1-1h21l1 1v2l-1 1V8H4v13l1 1h19l1-1v-9l1-1v12H3V7zm5 7a2 2 0 1 0 1 3l2 1 1-1 4-4 3 3h1l3-3v8H5V9h18v2l-3 4-4-3h-1l-4 4h-1v-1l-2-1zm1 1a1 1 0 1 1-2 0 1 1 0 0 1 2 0zm3 9h5v1h-5v-1zM1 25l1-1h9v1l1 1h5l1-1v-1h9l1 1v2H1v-2z" style="fill:var(--color1, #2e2f42)"/>
    </symbol>
     <symbol id="icon-cross" viewBox="0 0 32 32">
      <path d="m32 3-3-3-13 13L3 0 0 3l13 13L0 29l3 3 13-13 13 13 3-3-13-13L32 3z"/>
    </symbol>
    <symbol id="icon-envelope" viewBox="0 0 43 32">
      <path d="M37 0H5C3 0 1 2 1 4v24c0 2 2 4 4 4h32c3 0 4-2 4-4V4c0-2-1-4-4-4zm0 9-15 8h-2L6 9 5 7c0-1 2-2 3-1l13 8 14-8a2 2 0 1 1 2 3z"/>
    </symbol>
    <symbol id="icon-person" viewBox="0 0 32 32">
      <path d="M16 16a8 8 0 1 0 0-16 8 8 0 0 0 0 16zm0 4c-5 0-16 3-16 8v2l2 2h28l2-2v-2c0-5-11-8-16-8z"/>
    </symbol>
    <symbol id="icon-telephone" viewBox="0 0 32 32">
      <path d="m29 22-5-1-3 1-3 4c-5-3-9-7-12-12l4-3 1-3-1-5c0-2-2-3-3-3H4C2 0 0 2 0 4c1 15 13 27 28 28 2 0 4-2 4-4v-3c0-1-1-3-3-3z"/>
    </symbol>
   <symbol id="icon-telegramm" viewBox="0 0 38 32">
      <path d="M38 0 0 18l12 4L31 7 17 23v9l7-7 8 3 6-28z"/>
    </symbol>
    <symbol id="icon-yes" viewBox="0 0 40 32">
      <path d="m34 2 2-1 3 1 1 2-1 2-19 22-1 1h-1a4 4 0 0 1-3-1L3 17l-1-1v-3l1-1 1-1a4 4 0 0 1 3 0l1 1 10 9L34 2z"/>
    </symbol>
  </defs>
</svg>